<svg id="e0d7f8dc-7c24-49f6-b3c4-3becf086073a" data-name="圖層 1" xmlns="http://www.w3.org/2000/svg" viewBox="0 0 200 200"><path d="M51.38,152.38a902.21,902.21,0,0,1,54.84-72.63c1.45-1.73-1-4.25-2.5-2.5a908.85,908.85,0,0,0-55.39,73.34c-1.29,1.89,1.78,3.66,3.05,1.79Z" style="fill:#fff"/><path d="M103.12,79.73a816.86,816.86,0,0,0,45.87,74c1.29,1.85,4.36.09,3.06-1.79a816.8,816.8,0,0,1-45.88-74c-1.09-2-4.15-.22-3,1.78Z" style="fill:#fff"/><path d="M103.26,80.54a400.68,400.68,0,0,0,60.34,68c1.69,1.52,4.2-1,2.5-2.5a397,397,0,0,1-59.79-67.31c-1.3-1.84-4.37-.08-3,1.79Z" style="fill:#fff"/><path d="M167,154.65c-.18-3.7-.37-7.39-.55-11.08l-1.77,1.76a29.69,29.69,0,0,0,3.25.28l.91.08-.4-.47a12.61,12.61,0,0,0-1.06,2.07l-3.61,7c-1,2,2,3.82,3.06,1.79l3.39-6.63c.67-1.31,1.86-2.9,1.86-4.43,0-3.55-5.07-3.06-7.4-3.25a1.77,1.77,0,0,0-1.77,1.77q.27,5.53.56,11.08c.11,2.26,3.65,2.28,3.53,0Z" style="fill:#fff"/><path d="M35.78,154.65c.19-3.7.37-7.39.56-11.08a1.78,1.78,0,0,0-1.77-1.77c-2.33.19-7.39-.31-7.4,3.25,0,1.5,1.21,3.17,1.86,4.43l3.39,6.63c1,2,4.09.24,3-1.79l-3.6-7c-.19-.38-.51-1.43-.85-1.66-.09-.49-.22-.55-.41-.18s-.25.36.25.2c.81.31,2.84-.24,3.71-.32l-1.77-1.76q-.27,5.53-.56,11.08c-.11,2.27,3.43,2.27,3.54,0Z" style="fill:#fff"/><path d="M101.86,78.43c-10.88,12-22.12,23.64-33.47,35.18C57.47,124.7,47,136.81,33.68,145.14c-1.93,1.2-.15,4.27,1.78,3.05,13.2-8.26,23.63-20.1,34.47-31.11,11.68-11.85,23.25-23.82,34.43-36.15,1.52-1.68-1-4.19-2.5-2.5Z" style="fill:#fff"/><path d="M102.68,78.57q.13,10.56-.49,21.11c-.13,2.28,3.41,2.27,3.54,0q.63-10.55.49-21.11c0-2.28-3.57-2.28-3.54,0Z" style="fill:#fff"/><path d="M102.57,90.94a372.6,372.6,0,0,1-34.08,60.44c-1.3,1.87,1.76,3.64,3.05,1.78a372.65,372.65,0,0,0,34.09-60.44c.92-2.06-2.13-3.86-3.06-1.78Z" style="fill:#fff"/><path d="M102.07,92.52c1.19,20.26-2,40.59,1.1,60.76.35,2.25,3.76,1.29,3.42-.94-3.06-19.83.19-39.9-1-59.82-.13-2.27-3.67-2.28-3.53,0Z" style="fill:#fff"/><path d="M101.84,92.3C96.38,103.6,88.2,113.53,80.07,123a75.35,75.35,0,0,1-6.46,6.79c-1.72,1.56-3.9,2.89-4.94,5-1,1.94-.8,4.5-.86,6.59-.11,3.75-.06,7.5.09,11.24.09,2.27,3.63,2.28,3.54,0-.13-3.28-.19-6.55-.13-9.83.08-3.79-.12-6.26,2.91-8.89a97.43,97.43,0,0,0,11.56-12.29C92.86,113,100,104.23,104.89,94.09c1-2-2.06-3.84-3-1.79Z" style="fill:#fff"/><path d="M47,154.42c18.07,1.15,36.19,1.23,54.28,1.51,17.86.28,35.73.25,53.43-2.4,2.24-.34,1.29-3.75-.94-3.42-17.82,2.68-35.88,2.55-53.85,2.26C82.3,152.09,64.63,152,47,150.88c-2.27-.15-2.26,3.39,0,3.54Z" style="fill:#fff"/><path d="M154.79,71.19q-.28,22.47-1.68,44.9c-.15,2.27,3.39,2.26,3.53,0q1.41-22.43,1.68-44.9c0-2.28-3.51-2.28-3.53,0Z" style="fill:#fff"/><path d="M147.7,83.88a57,57,0,0,0,10.92-13.25h-3.05a33.1,33.1,0,0,0,10.59,13.28c1.81,1.37,3.57-1.7,1.78-3.06a29.65,29.65,0,0,1-9.32-12c-.55-1.27-2.43-1-3.05,0A53.87,53.87,0,0,1,145.2,81.38c-1.7,1.52.81,4,2.5,2.5Z" style="fill:#fff"/><path d="M148.28,96a48.33,48.33,0,0,0,9.81-13.57H155a70.93,70.93,0,0,0,12.22,13.33c1.73,1.45,4.25-1,2.5-2.5A67.78,67.78,0,0,1,158.09,80.6c-.7-1-2.42-1.3-3.05,0a45.93,45.93,0,0,1-9.26,12.85c-1.63,1.6.87,4.1,2.5,2.5Z" style="fill:#fff"/><path d="M38.67,71.19Q38.4,93.66,37,116.09c-.14,2.27,3.4,2.26,3.54,0q1.41-22.43,1.68-44.9c0-2.28-3.51-2.28-3.54,0Z" style="fill:#fff"/><path d="M31.59,83.88A57,57,0,0,0,42.51,70.63h-3A33.16,33.16,0,0,0,50,83.91c1.82,1.37,3.58-1.7,1.79-3.06a29.65,29.65,0,0,1-9.32-12c-.55-1.27-2.43-1-3,0A53.87,53.87,0,0,1,29.09,81.38c-1.7,1.52.81,4,2.5,2.5Z" style="fill:#fff"/><path d="M32.17,96A48.33,48.33,0,0,0,42,82.38h-3A70.93,70.93,0,0,0,51.15,95.71c1.73,1.45,4.24-1,2.5-2.5A67.78,67.78,0,0,1,42,80.6c-.7-1-2.42-1.3-3,0a45.93,45.93,0,0,1-9.26,12.85c-1.63,1.6.87,4.1,2.5,2.5Z" style="fill:#fff"/><path d="M123.84,41.1q.81,22.46.49,44.93c0,2.28,3.51,2.28,3.54,0q.31-22.47-.5-44.93c-.08-2.27-3.62-2.28-3.53,0Z" style="fill:#fff"/><path d="M117.32,54.27A57,57,0,0,0,127.6,40.51h-3A33.21,33.21,0,0,0,135.74,53.3c1.88,1.29,3.65-1.78,1.78-3.06a29.6,29.6,0,0,1-9.92-11.51,1.78,1.78,0,0,0-3,0,54.24,54.24,0,0,1-9.73,13c-1.62,1.6.88,4.1,2.5,2.5Z" style="fill:#fff"/><path d="M118.48,66.3a48.65,48.65,0,0,0,9.16-14l-2.78.36a71,71,0,0,0,12.92,12.65c1.81,1.38,3.58-1.69,1.79-3.06a67.51,67.51,0,0,1-12.21-12.09,1.76,1.76,0,0,0-2.77.35A46,46,0,0,1,116,63.8c-1.55,1.66,1,4.17,2.5,2.5Z" style="fill:#fff"/><path d="M73.49,41.34q-2.67,22.3-4.23,44.73c-.16,2.27,3.38,2.26,3.53,0Q74.35,63.66,77,41.34c.27-2.26-3.27-2.24-3.54,0Z" style="fill:#fff"/><path d="M85,52.76a54,54,0,0,1-8.58-13.83c-.55-1.27-2.43-1-3.06,0a29.38,29.38,0,0,1-10.89,10.6c-2,1.12-.2,4.18,1.79,3A33.24,33.24,0,0,0,76.44,40.72H73.38a57,57,0,0,0,9.14,14.54c1.48,1.73,4-.78,2.5-2.5Z" style="fill:#fff"/><path d="M82.86,64.65A44.67,44.67,0,0,1,75.6,51.08a1.79,1.79,0,0,0-3-.78,67.51,67.51,0,0,1-13.18,11c-1.92,1.22-.14,4.28,1.78,3A70.73,70.73,0,0,0,75.15,52.8l-3-.78a49.77,49.77,0,0,0,8.17,15.13c1.4,1.79,3.89-.73,2.5-2.5Z" style="fill:#fff"/></svg>