<svg id="b8472178-ecf9-445f-8d99-ac51b0e286c7" data-name="圖層 1" xmlns="http://www.w3.org/2000/svg" viewBox="0 0 200 200"><path d="M85.36,37.43q-6.6,16.88-14.24,33.3c-1.45,3.11,3.17,5.84,4.63,2.71q7.94-17.07,14.78-34.59c1.26-3.21-3.93-4.61-5.17-1.42Z" style="fill:#fff"/><path d="M86.46,39.57q8.22,17.94,15.59,36.25l3.94-3c-3.27-1.7-7-3.51-10.75-3.8-3-.23-3.64.73-5.53,2.63-1.42,1.43-1.78,2.29-4.26,1.79-1.75-.35-3.5-1.89-5.16-2.58-3.11-1.3-5.87-1.56-8.81.22s-.26,6.42,2.71,4.63,6.93,2,9.83,2.91a10,10,0,0,0,6.43.18c2.09-.81,2.12-2.11,3.54-3.45,1.05-1,1.12-.94,3-.46a30.12,30.12,0,0,1,6.32,2.56c1.85,1,4.88-.69,3.94-3q-7.62-19-16.13-37.53c-1.44-3.14-6.06-.41-4.63,2.71Z" style="fill:#fff"/><path d="M75.73,73.84q-6.49,17.63-13,35.25c-.9,2.45,2.82,4.69,4.48,2.61,1.46-1.81,3.49-5.83,5.6-6.85,3.44-1.66,2.65,2.24,3.83,4,2.2,3.33,5.12,2.85,7.64.56,1.06-1,.65-1.19,2.3-2.22,2.25-1.38,3.51-.71,5.82,0,2.11.7,4.16,2.06,6.46,1.71,1.63-.24,2.66-2.26,3.35-2.42s6.11,4.62,7,5.27c1.71,1.27,4-.46,4-2.32.12-5.75-3.51-11.94-5.51-17.22q-3.75-9.93-7.51-19.86c-1.21-3.2-6.4-1.81-5.17,1.43q3.39,9,6.79,18c1.94,5.14,6.15,12.15,6,17.69l4-2.31c-2.53-1.87-5.79-5.46-8.94-6.2-2.89-.67-2.91.74-4.89,1.94-1.08.65-.61.72-2.48-.12a20.1,20.1,0,0,0-6.13-1.89,9.71,9.71,0,0,0-6.56,1.49c-.48.33-1.94,2.42-2.33,2.56-.36.76-.37.84,0,.25a1.31,1.31,0,0,0,.09-1.64,5.87,5.87,0,0,0-3.43-5.09c-6-2.57-10.9,5.8-13.8,9.43l4.48,2.61,13-35.26c1.19-3.24-4-4.64-5.17-1.42Z" style="fill:#fff"/><path d="M72.36,101.63,62.58,141a2.7,2.7,0,0,0,4.48,2.61,15.72,15.72,0,0,1,21.14-.73,2.79,2.79,0,0,0,3.8,0c3.38-2.69,2.61-6,8-4,4.26,1.56,8.38,4.19,12.44,6.21,2,1,4.68-.66,3.94-3q-6.12-19.56-13.47-38.69c-1.23-3.19-6.42-1.8-5.17,1.43q7.35,19.13,13.46,38.69l4-3-10.67-5.32c-2.24-1.12-4.73-2.8-7.28-3.08-5.3-.59-5.72,4.46-9,7.07H92a21.22,21.22,0,0,0-28.73.73l4.48,2.61,9.78-39.4c.83-3.35-4.34-4.78-5.17-1.43Z" style="fill:#fff"/><path d="M79.79,136.44l0,14.92c0,3.87-.84,8.76.19,12.46,1.68,6,9.91,4,14.61,4a2.7,2.7,0,0,0,2.68-2.68q-.54-13.71-1.74-27.37c-.3-3.42-5.67-3.45-5.36,0q1.2,13.66,1.74,27.37l2.68-2.68c-2.24,0-6.12.88-8.13.05-2.21-.92-1.29-4.39-1.29-6.9q0-9.59,0-19.18c0-3.45-5.37-3.46-5.37,0Z" style="fill:#fff"/><path d="M135.3,47.48q-4.83,12.3-10.39,24.28c-1.44,3.11,3.18,5.84,4.64,2.71q5.85-12.61,10.92-25.56c1.26-3.22-3.92-4.61-5.17-1.43Z" style="fill:#fff"/><path d="M136.18,49.6q6,13.09,11.37,26.45l3.94-3c-4.54-2.29-8.66-4.3-12.67-1-1.19,1-.9,1.58-2.83,1.15-1.43-.32-2.66-1.45-4.06-1.93a7.31,7.31,0,0,0-6.49.45c-3.07,1.58-.36,6.22,2.71,4.63,2.65-1.37,7.66,3.46,11.23,2.52,1.4-.38,1.87-1.28,2.94-2,.81-.56.28-.9,1.35-1.1,1.27-.25,4.46,1.56,5.11,1.89,1.86.93,4.9-.67,3.95-3q-5.64-14-11.92-27.73c-1.44-3.13-6.06-.41-4.63,2.71Z" style="fill:#fff"/><path d="M128.23,74.21,118.7,100.1c-.9,2.45,2.82,4.69,4.49,2.61.46-.58,3.64-5.33,4.28-5.18.91.2,1.09,2.34,1.54,3a4.29,4.29,0,0,0,5.6,1.63c.94-.53,1.09-1.79,1.8-2.32,3-2.24,5.47.84,8.28,1s3.61-1.23,5.13-3.27l-2.32,1.33c1.33,0,4.57,3.16,5.66,4,1.64,1.21,4.12-.41,4-2.32-.2-4.39-2.47-8.59-4-12.66l-5.58-14.75c-1.21-3.2-6.4-1.82-5.17,1.42l4.83,12.79c1.48,3.93,4.37,9,4.56,13.2l4-2.31c-1.87-1.38-4.4-4.07-6.74-4.62-2.08-.49-2.41.71-3.94,1.26s1.75,1.73-1.91-.1a12.26,12.26,0,0,0-3.89-1.19,7.87,7.87,0,0,0-6,1.46c-.4.33-1.44,1.21-1.52,1.81-.26,1.76,1.15.09,1.36-.76.42-1.69-1.66-3.74-3-4.29-4.78-1.92-8.42,4.07-10.83,7.08l4.49,2.61,9.52-25.89c1.2-3.25-4-4.65-5.17-1.43Z" style="fill:#fff"/><path d="M125.75,94.62q-3.59,14.47-7.18,28.93a2.71,2.71,0,0,0,4.49,2.62,10.89,10.89,0,0,1,14.51-.54,2.77,2.77,0,0,0,3.8,0c2.42-2.15,1.56-4.22,5.45-2.64,3,1.21,5.82,2.91,8.7,4.34,2,1,4.68-.66,3.94-3q-4.5-14.35-9.89-28.41c-1.22-3.19-6.42-1.8-5.17,1.43q5.39,14.06,9.88,28.41l3.95-3c-4-2-8.81-5.57-13.29-6.2-4.25-.59-4.79,3-7.37,5.33h3.8a16.39,16.39,0,0,0-22.11.54l4.49,2.61q3.59-14.46,7.18-28.93c.83-3.35-4.34-4.78-5.18-1.43Z" style="fill:#fff"/><path d="M131.19,120.37q0,5.09,0,10.17c0,3-.52,6.69.11,9.67,1.12,5.39,7.28,3.95,11.47,3.92a2.71,2.71,0,0,0,2.68-2.68q-.39-10.06-1.28-20.1c-.3-3.41-5.67-3.45-5.36,0q.87,10,1.28,20.1c.89-.9,1.78-1.79,2.68-2.68-1.17,0-5.81.74-6.64,0,.88.74.39-.62.44-1.23.11-1.28,0-2.62,0-3.91l0-13.3c0-3.45-5.37-3.46-5.36,0Z" style="fill:#fff"/><path d="M56.43,167.22H24.23c-3.45,0-3.46,5.37,0,5.37h32.2c3.46,0,3.46-5.37,0-5.37Z" style="fill:#fff"/><path d="M155.15,154.15a119.35,119.35,0,0,1,31.48.3c3.38.49,4.84-4.68,1.43-5.17a124.2,124.2,0,0,0-32.91-.5c-3.39.41-3.43,5.78,0,5.37Z" style="fill:#fff"/></svg>