<svg id="b5729b09-2045-4730-9abf-382e896f8ee5" data-name="圖層 1" xmlns="http://www.w3.org/2000/svg" viewBox="0 0 200 200"><path d="M52.69,58a15.8,15.8,0,0,0-12.92,9.5c-2.41,6,.6,13,3.15,18.53a99.36,99.36,0,0,0,6.64,12.21c1.63,2.51,3.54,5.19,6.48,6.23,3.1,1.09,6.17,0,9.13-1,4.87-1.6,9.73-3.23,14.57-4.94a249.59,249.59,0,0,0,25.52-10.36c4.16-2,8.24-4.18,12.19-6.58,3-1.8,6-3.81,7.75-6.93,3.52-6.39-1.16-14.54-4.1-20.25-3.1-6-7.45-15.13-14.95-16.45-3.85-.67-7.68.87-11.22,2.19-4.57,1.7-9.09,3.57-13.58,5.48-10.52,4.48-20.9,9.26-31.62,13.22-2.28.85-1.33,4.53,1,3.68C64.35,57.46,77.46,51.09,91,45.7c6-2.39,13.73-6.79,19.21-1.23,4.92,5,8.4,12.62,10.92,19.07,1.2,3.08,2.42,6.66.49,9.73S116,78.07,113,79.78a166.74,166.74,0,0,1-19,9.27c-7,2.94-14.25,5.5-21.48,8-3.24,1.09-6.47,2.22-9.73,3.24-4.48,1.4-7,.47-9.67-3.45-4-6-8.08-13.17-9.8-20.22-.8-3.26-1-6.72,1-9.57,1.87-2.63,5-5,8.32-5.21,2.43-.16,2.46-4,0-3.8Z" style="fill:#fff"/><path d="M60.33,102c-4.26,4.37-3.55,10.56-1.95,16,2.6,8.75,5.87,17.43,9.21,25.91a176.84,176.84,0,0,0,11.74,24.81c1.7,2.9,3.59,6.13,6.91,7.38s7.07.55,10.33-.16c9.09-2,18-6.08,26.57-9.53,8.39-3.38,16.92-6.72,25-10.76,5.59-2.79,10.86-7.1,10.25-13.94-.34-3.78-1.87-7.62-3.11-11.18-1.56-4.51-3.36-8.94-5.29-13.31-4.34-9.79-9.48-19.19-14.76-28.5-2.75-4.84-8.36-18.14-16.06-12.26-1.92,1.46,0,4.77,1.9,3.29,4-3.06,7.18,4.4,8.7,7.06,1.81,3.17,3.62,6.35,5.39,9.54,3.66,6.6,7.18,13.27,10.34,20.12a153.76,153.76,0,0,1,8.1,21.26c1.08,3.67,1.72,7.19-1,10.3-1.92,2.16-4.68,3.56-7.26,4.78a450.45,450.45,0,0,1-41.89,17.08,50.1,50.1,0,0,1-10.26,2.79c-5,.66-7.6-.88-10.19-5.24a157.34,157.34,0,0,1-9.71-19.55c-3.34-7.92-6.2-16-9-24.17-1.85-5.41-6.09-14.09-1.26-19,1.7-1.75-1-4.43-2.71-2.67Z" style="fill:#fff"/><path d="M49.55,62.3q9.51,22.7,19,45.38c6.33,15.1,12.28,30.44,19,45.37,1.53,3.4,4.44,7.89,8.8,7.17,5.59-.92,5.61-7.38,4.12-11.51C95.21,134,88.51,119.58,82,105.33Q70.78,80.55,58.17,56.41c-1.13-2.17-4.42-.27-3.29,1.9Q74,95,90.11,133.2q2.07,4.92,4.08,9.86c1.16,2.85,2.73,5.78,3.36,8.8.55,2.67-2.08,5.56-4.27,3.27a12.06,12.06,0,0,1-2-3.15c-1.45-3-2.6-6.15-3.89-9.21l-16.1-38.39q-9.23-22-18.44-44c-1-2.25-4.23-.33-3.29,1.9Z" style="fill:#fff"/><path d="M88.63,47q18,43.32,40.1,84.79c.94,1.76,1.87,3.51,2.82,5.25.68,1.26,1.32,3.44,2.45,4.33,1.36,1.08,3.51.61,4.91-.2,4.3-2.51,3.91-7.81,2.34-11.81-5.52-14.07-12.36-27.77-18.84-41.41q-11.55-24.31-24-48.18c-1.13-2.17-4.41-.27-3.29,1.9q12.42,23.86,24,48.18,5.61,11.81,11,23.73,2.77,6.12,5.49,12.28c1.06,2.39,6.29,12.74-.28,12.26l1.64,1a987.82,987.82,0,0,1-45.07-94c-.93-2.25-4.21-.33-3.28,1.9Z" style="fill:#fff"/><path d="M60.62,55.27a11.69,11.69,0,0,1-1.92-3.89c-.44-2.93,1.78-4.14,3.93-5.48a91.93,91.93,0,0,1,9.68-5.2A40.83,40.83,0,0,1,82,37.23c2.59-.48,4.19-.79,6,1.35a50.59,50.59,0,0,1,3.36,5L93,40.76H91.66a1.9,1.9,0,0,0,0,3.8H93a1.92,1.92,0,0,0,1.66-2.85c-2.53-3.79-4.42-8.53-9.54-8.6S75,35.28,70.41,37.41,59,42.13,56,46.33c-2.51,3.53-.71,7.57,1.31,10.84,1.29,2.07,4.58.18,3.29-1.9Z" style="fill:#fff"/><path d="M64.92,53.9c-.55-1.3-1.09-2.61-1.64-3.91-.24.86-.47,1.73-.7,2.59,2-1.48,19.67-14.17,21.19-8.73.66,2.36,4.33,1.4,3.68-1C84.17,31.12,65.22,46,60.68,49.29a2,2,0,0,0-.69,2.6c.55,1.3,1.09,2.61,1.64,3.92.95,2.24,4.23.32,3.29-1.91Z" style="fill:#fff"/><path d="M97.5,134.89,102,145.22a2,2,0,0,0,2.6.69l10.62-4.49c3-1.27,6.88-2.24,9.57-4.07a2.75,2.75,0,0,0,1.24-3.53c-1-3.24-3.65-6.55-5.33-9.5a1.94,1.94,0,0,0-2.59-.7c-6.55,3.12-13.52,5.28-19.94,8.67-2.16,1.15-.26,4.43,1.9,3.29,6.42-3.39,13.39-5.55,19.94-8.67l-2.59-.69c1.22,2.16,2.35,5.29,4,7.1,1.17,1.25,1.23.57-.16,1.45a29.12,29.12,0,0,1-4,1.68l-14.61,6.17,2.59.7L100.79,133c-1-2.24-4.26-.32-3.29,1.9Z" style="fill:#fff"/><path d="M134.6,89.61c1.81-.78,3.62-1.73,5.48-2.38,2.79-1,2.68-.61,4,1.94l2.77,5.28c.81,1.53,3,4.47,2.8,6.24l.95-1.63c-2.36,1.73-5.44,2.81-8.08,4.07-2.21,1-.3,4.33,1.9,3.29,2.5-1.19,7.86-2.5,9-5.23,1.22-3-3-8.17-4.28-10.62s-2.58-7.3-5.5-8.13c-1.24-.35-2.23.15-3.39.61-2.54,1-5,2.19-7.54,3.28-2.24,1-.32,4.25,1.9,3.28Z" style="fill:#fff"/><path d="M150.35,103.64c4.92,6,9.76,12.66,12.94,19.79,1.65,3.7,2.75,8.26.71,12.06-1.81,3.37-5.82,5-8.77,7.25-1.93,1.45,0,4.76,1.9,3.29,3.41-2.56,7.58-4.44,9.88-8.2a14.78,14.78,0,0,0,1.55-10.47c-.91-4.79-3.6-9.21-6.11-13.3A120.41,120.41,0,0,0,153,100.93c-1.54-1.88-4.2.83-2.67,2.71Z" style="fill:#fff"/><path d="M59.4,118l-6.29,2.71c-1.29.56-3.27,1-4.24,2.12-2.31,2.6.81,7.76,1.67,10.27.94,2.71,1.81,9.43,5,10.53,1.42.5,3-.38,4.31-.9l6.46-2.56c2.25-.88,1.31-4.57-1-3.68s-5.09,2.7-7.5,3c-1,.76-1.46.43-1.45-1-.25-.71-.49-1.41-.73-2.12-.57-1.64-1.13-3.29-1.7-4.93-.49-1.41-1-2.81-1.46-4.23-.67-2.19-.6-1.88,1.43-2.76l7.36-3.16c2.24-1,.32-4.25-1.91-3.29Z" style="fill:#fff"/><path d="M55.5,143.54c1.36,10.38,3.3,20.49,9.89,28.86a14.68,14.68,0,0,0,8.91,5.81c4.12.71,8.17-1,12.18-1.66,2.41-.41,1.43-4.08-1-3.67-3.4.58-7,2.15-10.45,1.57-4.35-.73-6.93-4.42-9.24-7.84-4.51-6.69-5.63-16.18-6.65-24-.32-2.42-4-1.44-3.68,1Z" style="fill:#fff"/></svg>