<svg id="a7134460-5827-4cf3-9ca8-4aea0f0dd9c1" data-name="圖層 1" xmlns="http://www.w3.org/2000/svg" viewBox="0 0 200 200"><path d="M54.45,171.75a840.2,840.2,0,0,1,95.48-42.38c2.46-.91,1.4-4.89-1.09-4a851.33,851.33,0,0,0-96.47,42.79c-2.35,1.23-.27,4.78,2.08,3.56Z" style="fill:#fff"/><path d="M55.63,136q48.56,12.72,96.69,26.9c2.55.75,3.64-3.22,1.1-4q-48.15-14.17-96.7-26.9c-2.56-.67-3.66,3.3-1.09,4Z" style="fill:#fff"/><path d="M96,130.84c-7-3.1-14.1-6.91-19.33-12.69-6.73-7.42-7.2-16.32-5.79-25.83.91-6.18,3.88-11.16,3.53-17.53-.46-8.42-2.72-16.66-7.6-23.6-1.52-2.15-5.09-.09-3.56,2.08,5,7,8.92,18.41,6.8,27.11-.66,2.75-2.12,5.18-2.69,8A63.19,63.19,0,0,0,66,101.92c.35,16.5,14.16,26.41,28,32.48,2.4,1,4.5-2.49,2.08-3.56Z" style="fill:#fff"/><path d="M136.48,44.58a55.42,55.42,0,0,0-8.32,25.7c-.51,8.1,1.88,15.08,3.05,22.92a31.11,31.11,0,0,1-8.49,25.86c-7.14,7.28-17.37,10-27.16,11.43-2.61.38-1.5,4.35,1.09,4,9.26-1.34,18.63-3.9,26.05-9.86a34.73,34.73,0,0,0,12.6-23c1-8.33-2.23-15.52-2.93-23.68A50.87,50.87,0,0,1,140,46.66c1.41-2.26-2.16-4.33-3.55-2.08Z" style="fill:#fff"/><path d="M98.37,120.43A16.64,16.64,0,0,1,90.49,107c-.15-5.39,1.85-10.34,1-15.77l-3.44,2,8,9.63a2.08,2.08,0,0,0,3.45-.91q1.76-9,3.26-18h-4c1,3.38,1.84,7,3.18,10.33.55,1.34,1.14,2.78,2.6,3.38,4,1.66,7.52-5.88,9.23-8.19L110,88.94c1.47,6,1.81,12.41-.83,18.17a30.75,30.75,0,0,1-4.88,7.18c-1.6,1.87-3.53,4.74-6.11,5.14s-1.51,4.37,1.09,4c2.9-.45,4.7-2.61,6.58-4.68a41,41,0,0,0,6.7-9.12c3.38-6.84,3.19-14.49,1.42-21.76-.46-1.88-2.78-1.82-3.76-.49l-2.87,3.87c-1.36,1.83-1,2.38-1.89.44-1.22-2.73-1.84-6-2.73-8.85-.55-1.79-3.61-2.12-4,0q-1.5,9-3.27,18l3.45-.91q-4-4.82-8-9.62c-1.46-1.76-3.73.21-3.44,2,1.09,6.75-2.32,13.12-.3,19.9a21.08,21.08,0,0,0,9.1,11.8c2.25,1.43,4.31-2.13,2.08-3.55Z" style="fill:#fff"/><path d="M65.11,53c4-.92,8.49,4.85,10.28,8,1.66,2.9,3,5.91,4.78,8.73,1.43,2.23,5,.17,3.56-2.08-4.3-6.71-9.32-21-19.71-18.6-2.59.59-1.5,4.56,1.09,4Z" style="fill:#fff"/><path d="M83.59,67.19c-.44-7.74,6.44-13.62,9.69-20.1,3.34-6.66,5.09-13.94,6.78-21.15l-4-.55c.83,6.52,1.84,12.84,5.23,18.59,3.74,6.36,10.09,12.61,8.61,20.65-.48,2.59,3.49,3.7,4,1.1,1.24-6.71-1.49-12.47-5.15-17.94-2.13-3.18-4.46-6.29-5.88-9.87-1.58-4-2.12-8.32-2.66-12.53-.27-2.11-3.47-3-4-.55-1.94,8.26-3.92,16.67-8.49,23.94-3.65,5.81-8.54,11.1-8.13,18.41.15,2.64,4.27,2.65,4.12,0Z" style="fill:#fff"/><path d="M112.08,68c5.37-1.61,8.46-5.78,11.79-10a36.56,36.56,0,0,1,16-12c2.46-.93,1.39-4.91-1.1-4a39.7,39.7,0,0,0-14.66,9.36C120,55.66,117.05,62.18,111,64c-2.54.76-1.46,4.74,1.09,4Z" style="fill:#fff"/><path d="M152.65,24.86A5.45,5.45,0,0,1,147.53,31c-2.64.07-2.65,4.18,0,4.12a9.63,9.63,0,0,0,9.09-11.36c-.48-2.6-4.45-1.5-4,1.09Z" style="fill:#fff"/><path d="M158.64,22.7c-.22,2.81-.08,6.09,2.46,7.87a4.78,4.78,0,0,0,6.79-1,2.06,2.06,0,0,0-.74-2.81,2.11,2.11,0,0,0-2.82.73c-.1.15-1-.4-1.18-.63-.8-1.07-.49-3-.39-4.19.2-2.64-3.92-2.63-4.12,0Z" style="fill:#fff"/><path d="M153.8,40.61c1.1-1.39,2.47-2.93,4.3-3.3a2.82,2.82,0,0,1,3.53,2.06c.53,2.6,4.5,1.5,4-1.09a6.74,6.74,0,0,0-6.28-5.15c-3.45-.22-6.39,2-8.43,4.57-1.63,2,1.26,5,2.91,2.91Z" style="fill:#fff"/><path d="M34.87,91c2.54,1.8,5.43,3.47,8.67,2.75s4.58-3.49,5.31-6.48c.63-2.58-3.34-3.68-4-1.1-.44,1.8-.91,3.74-3.16,3.62-1.79-.09-3.36-1.35-4.77-2.34-2.17-1.53-4.23,2-2.08,3.55Z" style="fill:#fff"/><path d="M49.53,91.61a6.23,6.23,0,0,0-5.11,4.86A6.39,6.39,0,0,0,47.36,103c2.22,1.45,4.29-2.11,2.08-3.56-2-1.31-.79-3.59,1.19-3.89a2.07,2.07,0,0,0,1.44-2.53,2.12,2.12,0,0,0-2.54-1.44Z" style="fill:#fff"/><path d="M34.64,100.2c3.46-1.36,4.51,3.85,5,6.14.52,2.6,4.49,1.5,4-1.09s-1.18-5.39-3.15-7.31a6.66,6.66,0,0,0-6.88-1.72c-2.44,1-1.38,5,1.1,4Z" style="fill:#fff"/></svg>