<svg id="b767c93d-ed7d-4156-af72-7a8b18549961" data-name="圖層 1" xmlns="http://www.w3.org/2000/svg" viewBox="0 0 200 200"><path d="M87.5,96.35,52.92,139.64l-8.64,10.82c-1.93,2.41-5,5.1-5.62,8.27-1.15,5.76,6.24,12.33,9.89,15.71,4.06,3.75,8.79,7.55,13.62,2.88,6.06-5.87,10.94-14.07,16-20.79q16.89-22.22,33.34-44.78c1.89-2.59-2.13-5.54-4-3Q94.25,127,80.7,145q-6.48,8.61-13,17.16c-2.33,3-4.52,6.55-7.17,9.32-1.44,1.51-2.32,3.23-4.66,2.48-1.71-.55-3.48-2.74-4.75-4-2.18-2.1-6.43-5.9-7.22-8.95s3.4-6.33,5-8.4q7.11-8.88,14.2-17.77L91.52,99.3c2-2.51-2-5.45-4-3Z" style="fill:#fff"/><path d="M91.07,95.84c-4.75-9.14-3-19.33.56-28.57,1.15-3-3.5-4.77-4.66-1.77-4,10.38-5.79,22.08-.48,32.33,1.47,2.83,6.05.86,4.58-2Z" style="fill:#fff"/><path d="M87.76,66c17.11,11.54,33.05,25,49.36,37.67,2.54,2,5.49-2.06,2.95-4C123.76,87,107.82,73.54,90.71,62c-2.65-1.79-5.61,2.22-2.95,4Z" style="fill:#fff"/><path d="M109.55,113.8a36.37,36.37,0,0,0,29.2-10.49c2.24-2.24-.83-6.17-3.1-3.91a31.69,31.69,0,0,1-25.59,9.44c-3.19-.28-3.72,4.68-.51,5Z" style="fill:#fff"/><path d="M91.54,66.23A55.29,55.29,0,0,1,100.08,57l-3,.05c9.69,6,19.4,12,28.57,18.75,4.31,3.19,8.5,6.55,12.48,10.14.92.84,4,2.88,4.32,4.1s0,1.1-.62,2.22a63.43,63.43,0,0,1-5.06,7.38c-1.86,2.61,2.16,5.56,4,2.95,2.26-3.16,7.94-8.74,7.09-13-.37-1.87-2.06-3.16-3.35-4.4q-4.08-3.94-8.47-7.55C124.81,68.33,112.37,60.67,100,53a2.57,2.57,0,0,0-3,.06,61.32,61.32,0,0,0-9.47,10.18c-1.91,2.58,2.11,5.53,4,3Z" style="fill:#fff"/><path d="M118.44,53.33a222.14,222.14,0,0,1,10-28.44c1.27-2.95-3.39-4.73-4.66-1.78a225.38,225.38,0,0,0-10,28.45c-.85,3.06,3.8,4.87,4.66,1.77Z" style="fill:#fff"/><path d="M140.63,54.85A162.84,162.84,0,0,1,158,31.23c2.13-2.4-1.9-5.33-4-2.95A163.39,163.39,0,0,0,136.61,51.9c-1.65,2.72,2.35,5.7,4,3Z" style="fill:#fff"/><path d="M146.11,70.54l24.41-15.05c2.73-1.68-.39-5.58-3.09-3.91L143,66.63c-2.72,1.68.4,5.57,3.1,3.91Z" style="fill:#fff"/></svg>