<svg id="fc4a11e4-05d7-4ed3-ab01-b8dbafca5a2b" data-name="圖層 1" xmlns="http://www.w3.org/2000/svg" viewBox="0 0 200 200"><path d="M47.28,104.28C33.06,98,14.71,107.6,15,124.08a23.94,23.94,0,0,0,10.55,19.29c8.77,5.73,19.64,3.19,29,.64,3.22-.87,1.85-5.87-1.38-5-7.37,2-16,4.52-23.3.91-5.34-2.65-8.88-8.36-9.57-14.19-1.53-12.9,12.86-22.06,24.35-17,3,1.34,5.66-3.12,2.61-4.47Z" style="fill:#fff"/><path d="M47.73,109.29c3.56-9.61,13.4-17.87,23.35-20.19,9.73-2.25,20.84,2.22,23.49,12.47.84,3.23,5.84,1.86,5-1.38C96.56,88.57,84.54,82,73,83.52c-13.17,1.72-25.67,12-30.26,24.39-1.16,3.14,3.84,4.49,5,1.38Z" style="fill:#fff"/><path d="M98.42,103.9c7.33-4.05,18.93-2.94,22.85,5.43,4.58,9.82-7,21.85-16.35,14.49-2.59-2-6.28,1.61-3.66,3.67,6.53,5.13,12.59,5.21,19.25.27,5.14-3.81,7.85-9.19,6.89-15.68-2.14-14.66-20-19.1-31.59-12.66-2.93,1.61-.31,6.09,2.61,4.48Z" style="fill:#fff"/><path d="M50.43,140.28C56.75,152.12,71,155,83.09,151.39c11.66-3.46,26.51-12,24.08-26.17-.57-3.28-5.56-1.89-5,1.38,1.93,11.25-13.38,18.08-22.15,20.26-9.53,2.36-20.22,0-25.11-9.2-1.57-2.94-6-.33-4.48,2.62Z" style="fill:#fff"/><path d="M134,69.9c-8.7-2.27-19.56.83-21.21,10.89a10.62,10.62,0,0,0,14.77,11.5c3-1.37.4-5.84-2.61-4.47-5.35,2.43-8.4-4.57-6.23-8.63,2.72-5.08,8.9-5.6,13.91-4.29,3.23.85,4.6-4.15,1.37-5Z" style="fill:#fff"/><path d="M135.32,75.61c-.08-14.53,25.9-13.83,26.49,1,.13,3.32,5.31,3.34,5.18,0-.39-9.91-8.61-17-18.42-16.87-8.95.11-18.49,6.14-18.44,15.83,0,3.34,5.2,3.35,5.19,0Z" style="fill:#fff"/><path d="M164.19,79.21c4.58-5.64,16-1.8,15.95,5.68,0,6.75-11.13,7.06-15.29,4.56-2.86-1.73-5.47,2.75-2.61,4.47,7.77,4.67,24.23,1.64,23.12-10-1.07-11.18-17.49-17.47-24.83-8.42-2.09,2.57,1.56,6.26,3.66,3.66Z" style="fill:#fff"/><path d="M123.69,87.31c-2.48,11.07,9.73,15.24,18.42,16.32,9.75,1.22,19.77-2.22,23.41-12,1.17-3.13-3.83-4.48-5-1.38-2.33,6.22-9,8.67-15.2,8.42-5.24-.21-18.43-2-16.64-10,.72-3.25-4.27-4.64-5-1.38Z" style="fill:#fff"/></svg>