<svg id="eb0e40b9-127f-4105-9366-5c048bb9f710" data-name="圖層 1" xmlns="http://www.w3.org/2000/svg" viewBox="0 0 200 200"><path d="M64.77,53.64c-3.79,0-8.26-1.33-11.86.35-4.77,2.23-6.18,7.63-7.47,12.25a225.8,225.8,0,0,0-8,42.1c-.8,10-3.31,26,7.76,31.15,5.35,2.48,11.68,3.26,17.44,4.38,7.67,1.49,15.39,2.68,23.13,3.7,15.09,2,30.25,3.34,45.4,4.77,10.52,1,25.14,5,30.24-7.41,2.09-5.11,2.32-11,2.87-16.45q1.29-12.61,1.54-25.28c.13-6.19.27-12.47,0-18.65-.24-5.08-1.23-9.27-5.24-12.64C156,68,149.5,66.67,143.8,65.17c-9-2.35-18.05-4.41-27.17-6.11a314.72,314.72,0,0,0-51.86-5.42c-3.63-.07-3.63,5.57,0,5.64,25.51.45,50.78,4.46,75.47,10.8,4.95,1.27,10.63,2.25,15,5,5.3,3.28,5,8.46,5,14,0,12.07-.17,24.08-1.26,36.11-.48,5.3-.6,11-2.23,16.15-2.4,7.53-8.92,7-15.46,6.33-12.29-1.2-24.6-2.27-36.88-3.55-12.12-1.27-24.23-2.76-36.23-4.94-5.55-1-11.14-2.06-16.59-3.5-2.33-.62-4.73-1.18-6.46-3-2.59-2.7-2.31-7-2.42-10.62-.41-13.46,1.63-26.92,4.56-40,1.36-6.12,2.51-12.84,4.86-18.66,2.55-6.32,7.1-4.15,12.63-4.11,3.63,0,3.63-5.62,0-5.64Z" style="fill:#fff"/><path d="M127.15,77.42q-.53,5.81-1.06,11.6c-.33,3.61,5.31,3.59,5.64,0q.53-5.8,1.06-11.6c.34-3.61-5.31-3.59-5.64,0Z" style="fill:#fff"/><path d="M129.41,80.31c5.08.28,10.15.59,15.22,1l3.8.29q3,0,2.12,2.51c.56,2-.65,5.41-1.09,7.49-.75,3.54,4.69,5.06,5.44,1.5.92-4.36,3.8-14-1.83-16.41-3-1.28-7.13-.93-10.34-1.16q-6.66-.48-13.32-.83c-3.62-.19-3.61,5.45,0,5.64Z" style="fill:#fff"/><path d="M127.77,92.44a62.93,62.93,0,0,1,24.06,3c3.46,1.12,4.94-4.33,1.5-5.44a67.13,67.13,0,0,0-25.56-3.15c-3.6.25-3.63,5.9,0,5.64Z" style="fill:#fff"/><path d="M99.15,75.79c-7.79-.79-13.81-.7-19.79,5a36.14,36.14,0,0,0-10.18,19.31c-2.82,15.75,9.1,29.22,24.48,31.52,35.51,5.32,37.87-56.81,3.22-55.78-3.62.11-3.63,5.75,0,5.65,28.25-.85,24.43,52.26-5.13,44-12-3.37-19.83-14-16.56-26.43a31.07,31.07,0,0,1,8.16-14.27c4.73-4.51,9.82-3.91,15.8-3.31,3.61.37,3.58-5.27,0-5.64Z" style="fill:#fff"/><path d="M63.76,55.62c.26-2.76.53-5.51.79-8.27l-2.82,2.82A134.56,134.56,0,0,1,79,50.81c1.73.19,8.71.06,9.93,1.49s.37,3.27.42,4.92c.12,3.62,5.76,3.64,5.64,0-.09-2.64,1.07-5.12-.31-7.57s-3.85-2.71-6.37-3.18a130.81,130.81,0,0,0-26.58-1.94,2.9,2.9,0,0,0-2.82,2.82c-.26,2.76-.53,5.51-.79,8.27-.35,3.61,5.29,3.59,5.64,0Z" style="fill:#fff"/><path d="M39.22,118.54A244.65,244.65,0,0,0,77.38,123c3.63.13,3.62-5.51,0-5.64a235.18,235.18,0,0,1-36.66-4.27c-3.55-.69-5.06,4.74-1.5,5.44Z" style="fill:#fff"/><path d="M112.49,127.49l45.73,7.76c3.55.61,5.07-4.83,1.5-5.43L114,122.05c-3.55-.6-5.07,4.83-1.49,5.44Z" style="fill:#fff"/><path d="M46.53,85.19A261.12,261.12,0,0,1,77.2,89c3.55.66,5.07-4.77,1.5-5.44a274,274,0,0,0-32.17-4c-3.62-.24-3.61,5.4,0,5.64Z" style="fill:#fff"/><path d="M118.17,97.91A408.77,408.77,0,0,1,161.48,103c3.55.61,5.08-4.82,1.5-5.44a424.06,424.06,0,0,0-44.81-5.27c-3.62-.24-3.61,5.41,0,5.64Z" style="fill:#fff"/></svg>